<svg width="20" height="22" viewBox="0 0 20 22" fill="none" xmlns="http://www.w3.org/2000/svg">
<path d="M0 4.125C0 3.36445 0.638393 2.75 1.42857 2.75H18.5714C19.3616 2.75 20 3.36445 20 4.125C20 4.88555 19.3616 5.5 18.5714 5.5H1.42857C0.638393 5.5 0 4.88555 0 4.125ZM0 11C0 10.2395 0.638393 9.625 1.42857 9.625H18.5714C19.3616 9.625 20 10.2395 20 11C20 11.7605 19.3616 12.375 18.5714 12.375H1.42857C0.638393 12.375 0 11.7605 0 11ZM20 17.875C20 18.6355 19.3616 19.25 18.5714 19.25H1.42857C0.638393 19.25 0 18.6355 0 17.875C0 17.1145 0.638393 16.5 1.42857 16.5H18.5714C19.3616 16.5 20 17.1145 20 17.875Z" fill="#141522"/>
</svg>
